<?xml version="1.0" encoding="UTF-8" standalone="no"?>
<svg
   version="1.1"
   width="25mm"
   height="129.20557mm"
   viewBox="0 0 24.999999 129.20557"
   id="svg206"
   xml:space="preserve"
   sodipodi:docname="expanderFP1.svg"
   inkscape:version="1.3.2 (091e20e, 2023-11-25)"
   xmlns:inkscape="http://www.inkscape.org/namespaces/inkscape"
   xmlns:sodipodi="http://sodipodi.sourceforge.net/DTD/sodipodi-0.dtd"
   xmlns="http://www.w3.org/2000/svg"
   xmlns:svg="http://www.w3.org/2000/svg"
   xmlns:rdf="http://www.w3.org/1999/02/22-rdf-syntax-ns#"
   xmlns:cc="http://creativecommons.org/ns#"
   xmlns:dc="http://purl.org/dc/elements/1.1/"><sodipodi:namedview
     id="namedview1"
     pagecolor="#ffffff"
     bordercolor="#000000"
     borderopacity="0.25"
     inkscape:showpageshadow="2"
     inkscape:pageopacity="0.0"
     inkscape:pagecheckerboard="0"
     inkscape:deskcolor="#d1d1d1"
     inkscape:document-units="mm"
     inkscape:zoom="1.9330952"
     inkscape:cx="-18.881636"
     inkscape:cy="250.89297"
     inkscape:window-width="1680"
     inkscape:window-height="997"
     inkscape:window-x="0"
     inkscape:window-y="25"
     inkscape:window-maximized="0"
     inkscape:current-layer="g4077" /><defs
     id="defs206"><clipPath
       clipPathUnits="userSpaceOnUse"
       id="clipPath22"><path
         d="M 0,495.668 H 3565 V 0 H 0 Z"
         transform="translate(-411.03911,-438.66801)"
         id="path22-0" /></clipPath></defs><title
     id="title1">SVG Image created as uSeqAnalogOuts_01a-B_Silkscreen.svg date 2024/09/07 11:07:57 </title><desc
     id="desc1">Image generated by PCBNEW </desc><g
     id="layer1"
     style="display:inline"><g
       id="g4077"
       transform="translate(0.78582979,9.5600781)"
       style="display:inline"><rect
         style="display:none;fill:none;stroke:#010101;stroke-width:0.0500558;stroke-dasharray:none;stroke-opacity:0.99705"
         id="rect207"
         width="23.403908"
         height="109.99741"
         x="0.01221649"
         y="0.043995146" /><circle
         style="fill:none;stroke:#010101;stroke-width:0.0516476;stroke-dasharray:none;stroke-opacity:0.99705"
         id="path4076"
         cx="17.053289"
         cy="19.538177"
         r="1.5741762" /><ellipse
         style="fill:none;stroke:#010101;stroke-width:0.100067;stroke-dasharray:none;stroke-opacity:0.99705"
         id="path4076-0"
         cx="6.573051"
         cy="19.324833"
         rx="3.0499666"
         ry="3.0499663" /><circle
         style="fill:none;stroke:#010101;stroke-width:0.0516476;stroke-dasharray:none;stroke-opacity:0.99705"
         id="path4076-3"
         cx="17.045683"
         cy="31.846762"
         r="1.5741762" /><ellipse
         style="fill:none;stroke:#010101;stroke-width:0.100067;stroke-dasharray:none;stroke-opacity:0.99705"
         id="path4076-0-7"
         cx="6.5654445"
         cy="31.633417"
         rx="3.0499666"
         ry="3.0499663" /><circle
         style="fill:none;stroke:#010101;stroke-width:0.0516476;stroke-dasharray:none;stroke-opacity:0.99705"
         id="path4076-5"
         cx="17.044838"
         cy="43.939674"
         r="1.5741762" /><ellipse
         style="fill:none;stroke:#010101;stroke-width:0.100067;stroke-dasharray:none;stroke-opacity:0.99705"
         id="path4076-0-6"
         cx="6.5645995"
         cy="43.72633"
         rx="3.0499666"
         ry="3.0499663" /><circle
         style="fill:none;stroke:#010101;stroke-width:0.0516476;stroke-dasharray:none;stroke-opacity:0.99705"
         id="path4076-3-4"
         cx="17.037231"
         cy="56.24826"
         r="1.5741762" /><ellipse
         style="fill:none;stroke:#010101;stroke-width:0.100067;stroke-dasharray:none;stroke-opacity:0.99705"
         id="path4076-0-7-0"
         cx="6.556993"
         cy="56.034916"
         rx="3.0499666"
         ry="3.0499663" /><circle
         style="fill:none;stroke:#010101;stroke-width:0.0516476;stroke-dasharray:none;stroke-opacity:0.99705"
         id="path4076-4"
         cx="17.027315"
         cy="68.682838"
         r="1.5741762" /><ellipse
         style="fill:none;stroke:#010101;stroke-width:0.100067;stroke-dasharray:none;stroke-opacity:0.99705"
         id="path4076-0-0"
         cx="6.5470772"
         cy="68.469498"
         rx="3.0499666"
         ry="3.0499663" /><circle
         style="fill:none;stroke:#010101;stroke-width:0.0516476;stroke-dasharray:none;stroke-opacity:0.99705"
         id="path4076-3-6"
         cx="17.019709"
         cy="80.991425"
         r="1.5741762" /><ellipse
         style="fill:none;stroke:#010101;stroke-width:0.100067;stroke-dasharray:none;stroke-opacity:0.99705"
         id="path4076-0-7-8"
         cx="6.5394707"
         cy="80.778084"
         rx="3.0499666"
         ry="3.0499663" /><circle
         style="fill:none;stroke:#010101;stroke-width:0.0516476;stroke-dasharray:none;stroke-opacity:0.99705"
         id="path4076-6"
         cx="17.035654"
         cy="93.237762"
         r="1.5741762" /><ellipse
         style="fill:none;stroke:#010101;stroke-width:0.100067;stroke-dasharray:none;stroke-opacity:0.99705"
         id="path4076-0-8"
         cx="6.5554156"
         cy="93.024422"
         rx="3.0499666"
         ry="3.0499663" /><circle
         style="fill:none;stroke:#010101;stroke-width:0.0516476;stroke-dasharray:none;stroke-opacity:0.99705"
         id="path4076-3-7"
         cx="17.028048"
         cy="105.54636"
         r="1.5741762" /><ellipse
         style="fill:none;stroke:#010101;stroke-width:0.100067;stroke-dasharray:none;stroke-opacity:0.99705"
         id="path4076-0-7-1"
         cx="6.5478096"
         cy="105.333"
         rx="3.0499666"
         ry="3.0499663" /><path
         id="path4077"
         style="display:inline;fill:none;stroke:#000000;stroke-width:0.053;stroke-dasharray:none;stroke-opacity:0.99705"
         d="m 6.5538546,117.94144 -2.6492933,-0.008 m -0.074458,-3.24594 2.7728782,0.009 m -2.6845472,3.23269 c -0.5854175,0.0238 -1.1382502,-0.26965 -1.4465193,-0.7679 -0.3082683,-0.49825 -0.3241357,-1.12395 -0.041518,-1.63718 0.2826189,-0.51323 0.8142834,-0.83249 1.4001557,-0.83837 m 2.7101137,3.25446 a 1.6233692,1.6233692 0 0 0 1.4494482,-0.77265 1.6233692,1.6233692 0 0 0 0.03317,-1.64219 1.6233692,1.6233692 0 0 0 -1.4170658,-0.83055" /><path
         id="path4077-9"
         style="display:inline;fill:none;stroke:#000000;stroke-width:0.053;stroke-dasharray:none;stroke-opacity:0.99705"
         d="m 19.079186,117.89339 -2.649293,-0.008 m -0.07446,-3.24594 2.772878,0.009 m -2.684547,3.23269 c -0.585417,0.0238 -1.13825,-0.26965 -1.446519,-0.7679 -0.308268,-0.49825 -0.324136,-1.12395 -0.04152,-1.63718 0.282619,-0.51323 0.814283,-0.83249 1.400156,-0.83837 m 2.710113,3.25446 a 1.6233692,1.6233692 0 0 0 1.449449,-0.77265 1.6233692,1.6233692 0 0 0 0.03317,-1.64219 1.6233692,1.6233692 0 0 0 -1.417067,-0.83055" /></g><path
       id="path21-5"
       d="m 0,0 h -1 -85.039 -1 v -1 -364.252 -1 h 1 H -1 0 v 1 V -1 Z M -1,-365.252 H -86.039 V -1 H -1 Z"
       style="display:inline;fill:#393739;fill-opacity:1;fill-rule:nonzero;stroke:none"
       transform="matrix(0.28722756,0,0,-0.35277776,25,0)"
       clip-path="url(#clipPath22)" /><path
       id="path4077-5"
       style="display:inline;fill:none;stroke:#000000;stroke-width:0.053;stroke-dasharray:none;stroke-opacity:0.99705"
       d="m 7.3556462,4.9971848 -2.6492933,-0.008 m -0.074458,-3.24594 2.7728782,0.009 m -2.6845472,3.23269 c -0.5854175,0.0238 -1.1382502,-0.26965 -1.4465193,-0.7679 -0.3082683,-0.49825 -0.3241357,-1.12395 -0.041518,-1.63718 0.2826189,-0.51323 0.8142834,-0.83249 1.4001557,-0.83837 m 2.7101137,3.25446 a 1.6233692,1.6233692 0 0 0 1.4494482,-0.77265 1.6233692,1.6233692 0 0 0 0.03317,-1.64219 1.6233692,1.6233692 0 0 0 -1.4170658,-0.83055" /><path
       id="path4077-9-7"
       style="display:inline;fill:none;stroke:#000000;stroke-width:0.053;stroke-dasharray:none;stroke-opacity:0.99705"
       d="m 19.880978,4.9491348 -2.649293,-0.008 m -0.07446,-3.24594 2.772878,0.009 m -2.684547,3.23269 c -0.585417,0.0238 -1.13825,-0.26965 -1.446519,-0.7679 -0.308268,-0.49825 -0.324136,-1.12395 -0.04152,-1.63718 0.282619,-0.51323 0.814283,-0.83249 1.400156,-0.83837 m 2.710113,3.25446 a 1.6233692,1.6233692 0 0 0 1.449449,-0.77265 1.6233692,1.6233692 0 0 0 0.03317,-1.64219 1.6233692,1.6233692 0 0 0 -1.417067,-0.83055" /></g><metadata
     id="metadata4077"><rdf:RDF><cc:Work
         rdf:about=""><dc:title>SVG Image created as uSeqAnalogOuts_01a-B_Silkscreen.svg date 2024/09/07 11:07:57 </dc:title></cc:Work></rdf:RDF></metadata></svg>
