<?xml version="1.0" encoding="UTF-8" standalone="no"?>
<svg
   version="1.1"
   width="25mm"
   height="129.20557mm"
   viewBox="0 0 24.999999 129.20557"
   id="svg206"
   xml:space="preserve"
   sodipodi:docname="expanderFP2-flippedright.svg"
   inkscape:version="1.3.2 (091e20e, 2023-11-25)"
   xmlns:inkscape="http://www.inkscape.org/namespaces/inkscape"
   xmlns:sodipodi="http://sodipodi.sourceforge.net/DTD/sodipodi-0.dtd"
   xmlns="http://www.w3.org/2000/svg"
   xmlns:svg="http://www.w3.org/2000/svg"
   xmlns:rdf="http://www.w3.org/1999/02/22-rdf-syntax-ns#"
   xmlns:cc="http://creativecommons.org/ns#"
   xmlns:dc="http://purl.org/dc/elements/1.1/"><sodipodi:namedview
     id="namedview1"
     pagecolor="#ffffff"
     bordercolor="#000000"
     borderopacity="0.25"
     inkscape:showpageshadow="2"
     inkscape:pageopacity="0.0"
     inkscape:pagecheckerboard="0"
     inkscape:deskcolor="#d1d1d1"
     inkscape:document-units="mm"
     inkscape:zoom="4.7424493"
     inkscape:cx="45.335223"
     inkscape:cy="52.082791"
     inkscape:window-width="1680"
     inkscape:window-height="997"
     inkscape:window-x="368"
     inkscape:window-y="34"
     inkscape:window-maximized="0"
     inkscape:current-layer="layer1" /><defs
     id="defs206"><clipPath
       clipPathUnits="userSpaceOnUse"
       id="clipPath22"><path
         d="M 0,495.668 H 3565 V 0 H 0 Z"
         transform="translate(-411.03911,-438.66801)"
         id="path22-0" /></clipPath></defs><title
     id="title1">SVG Image created as uSeqAnalogOuts_01a-B_Silkscreen.svg date 2024/09/07 11:07:57 </title><desc
     id="desc1">Image generated by PCBNEW </desc><g
     id="layer1"
     style="display:inline"><rect
       style="display:inline;opacity:1;fill:#1e184d;fill-opacity:0.563492;stroke:none;stroke-width:0.127924;stroke-opacity:0.56"
       id="rect1"
       width="25"
       height="129.2"
       x="0"
       y="-5.5511151e-17" /><path
       style="display:inline;fill:#ffffff;fill-opacity:1;stroke:#202020;stroke-width:0.11;stroke-dasharray:none;stroke-opacity:0.95858"
       d="m 5.0560017,4.9507976 c 0,0 -1.61483,-0.116942 -1.60195,-1.637027 0.0121,-1.425622 1.42655,-1.637025 1.57857,-1.637025 l 2.82971,-1e-6 c 0,0 1.57856,0.175396 1.59026,1.613639 0.0117,1.438243 -1.32132,1.660413 -1.56687,1.648719 -0.24556,-0.01169 -2.82972,0.01169 -2.82972,0.01169 z"
       id="path1"
       sodipodi:nodetypes="csscsscc" /><g
       id="g4077"
       transform="matrix(-1,0,0,1,24.214171,9.5600781)"
       style="display:inline"><rect
         style="display:none;fill:none;stroke:#010101;stroke-width:0.0500558;stroke-dasharray:none;stroke-opacity:0.99705"
         id="rect207"
         width="23.403908"
         height="109.99741"
         x="0.01221649"
         y="0.043995146" /><circle
         style="fill:#ffffff;stroke:#010101;stroke-width:0.0516476;stroke-dasharray:none;stroke-opacity:0.99705;fill-opacity:1"
         id="path4076"
         cx="17.053289"
         cy="19.538177"
         r="1.5741762" /><ellipse
         style="fill:#ffffff;stroke:#010101;stroke-width:0.100067;stroke-dasharray:none;stroke-opacity:0.99705;fill-opacity:1"
         id="path4076-0"
         cx="6.573051"
         cy="19.324833"
         rx="3.0499666"
         ry="3.0499663" /><circle
         style="fill:#ffffff;stroke:#010101;stroke-width:0.0516476;stroke-dasharray:none;stroke-opacity:0.99705;fill-opacity:1"
         id="path4076-3"
         cx="17.045683"
         cy="31.846762"
         r="1.5741762" /><ellipse
         style="fill:#ffffff;stroke:#010101;stroke-width:0.100067;stroke-dasharray:none;stroke-opacity:0.99705;fill-opacity:1"
         id="path4076-0-7"
         cx="6.5654445"
         cy="31.633417"
         rx="3.0499666"
         ry="3.0499663" /><circle
         style="fill:#ffffff;stroke:#010101;stroke-width:0.0516476;stroke-dasharray:none;stroke-opacity:0.99705;fill-opacity:1"
         id="path4076-5"
         cx="17.044838"
         cy="43.939674"
         r="1.5741762" /><ellipse
         style="fill:#ffffff;stroke:#010101;stroke-width:0.100067;stroke-dasharray:none;stroke-opacity:0.99705;fill-opacity:1"
         id="path4076-0-6"
         cx="6.5645995"
         cy="43.72633"
         rx="3.0499666"
         ry="3.0499663" /><circle
         style="fill:#ffffff;stroke:#010101;stroke-width:0.0516476;stroke-dasharray:none;stroke-opacity:0.99705;fill-opacity:1"
         id="path4076-3-4"
         cx="17.037231"
         cy="56.24826"
         r="1.5741762" /><ellipse
         style="fill:#ffffff;stroke:#010101;stroke-width:0.100067;stroke-dasharray:none;stroke-opacity:0.99705;fill-opacity:1"
         id="path4076-0-7-0"
         cx="6.556993"
         cy="56.034916"
         rx="3.0499666"
         ry="3.0499663" /><circle
         style="fill:#ffffff;stroke:#010101;stroke-width:0.0516476;stroke-dasharray:none;stroke-opacity:0.99705;fill-opacity:1"
         id="path4076-4"
         cx="17.027315"
         cy="68.682838"
         r="1.5741762" /><ellipse
         style="fill:#ffffff;stroke:#010101;stroke-width:0.100067;stroke-dasharray:none;stroke-opacity:0.99705;fill-opacity:1"
         id="path4076-0-0"
         cx="6.5470772"
         cy="68.469498"
         rx="3.0499666"
         ry="3.0499663" /><circle
         style="fill:#ffffff;stroke:#010101;stroke-width:0.0516476;stroke-dasharray:none;stroke-opacity:0.99705;fill-opacity:1"
         id="path4076-3-6"
         cx="17.019709"
         cy="80.991425"
         r="1.5741762" /><ellipse
         style="fill:#ffffff;stroke:#010101;stroke-width:0.100067;stroke-dasharray:none;stroke-opacity:0.99705;fill-opacity:1"
         id="path4076-0-7-8"
         cx="6.5394707"
         cy="80.778084"
         rx="3.0499666"
         ry="3.0499663" /><circle
         style="fill:#ffffff;stroke:#010101;stroke-width:0.0516476;stroke-dasharray:none;stroke-opacity:0.99705;fill-opacity:1"
         id="path4076-6"
         cx="17.035654"
         cy="93.237762"
         r="1.5741762" /><ellipse
         style="fill:#ffffff;stroke:#010101;stroke-width:0.100067;stroke-dasharray:none;stroke-opacity:0.99705;fill-opacity:1"
         id="path4076-0-8"
         cx="6.5554156"
         cy="93.024422"
         rx="3.0499666"
         ry="3.0499663" /><circle
         style="fill:#ffffff;stroke:#010101;stroke-width:0.0516476;stroke-dasharray:none;stroke-opacity:0.99705;fill-opacity:1"
         id="path4076-3-7"
         cx="17.028048"
         cy="105.54636"
         r="1.5741762" /><ellipse
         style="display:inline;fill:#ffffff;stroke:#010101;stroke-width:0.100067;stroke-dasharray:none;stroke-opacity:0.99705;fill-opacity:1"
         id="path4076-0-7-1"
         cx="6.5478096"
         cy="105.333"
         rx="3.0499666"
         ry="3.0499663" /></g><path
       id="path21-5"
       d="m -1,0 h -85.039 c -0.989661,-0.01088879 -1,-0.40111667 -1,-1 v -364.252 c 0,-0.73287 -0.0024,-1 1,-1 H -1 c 0.92058081,0 0.97954265,0.53363 1,1 V -1 c -0.01337379,0.76221514 0.00303452,1 -1,1 z m 0,-365.252 H -86.039 V -1 H -1 Z"
       style="display:inline;opacity:1;fill:none;fill-opacity:0.90873;fill-rule:nonzero;stroke:#202020;stroke-opacity:0.95857996;stroke-width:0.99899531;stroke-dasharray:none"
       transform="scale(-0.28722757,-0.35277777)"
       clip-path="url(#clipPath22)"
       sodipodi:nodetypes="cccccccccccccc" /><path
       class="st0"
       d="m 20.6453,18.826907 h -8.626886 c -0.274135,0 -0.458634,-0.223248 -0.411791,-0.496814 l 0.249851,-1.069397 c 0.06419,-0.277614 -0.22498,-0.499706 -0.499703,-0.499706 v 0 H 6.5077598 v -1.622891 h 5.3631752 c 0.274724,0 0.459797,0.224406 0.411791,0.499129 l -0.249263,1.067082 c -0.06476,0.278193 0.22498,0.499706 0.499704,0.499706 h 5.377047 0.882013 c 1.831102,0 3.321539,-1.489866 3.321539,-3.320967 0,-1.831102 -1.489863,-3.321545 -3.321539,-3.321545 h -5.009212 c -0.273575,0 -0.458648,-0.22325 -0.411806,-0.496816 L 13.621076,8.9952926 C 13.685265,8.717677 13.396081,8.4955848 13.121358,8.4955848 H 4.4973717 c -0.2747234,0 -0.4997035,0.2249844 -0.4997035,0.4997078 v 1.5101084 c 0,0.274724 0.2249801,0.499706 0.4997035,0.499706 h 8.2544143 c 0.274723,0 0.459796,0.224406 0.411791,0.499129 l -0.249263,1.067082 c -0.06476,0.277616 0.22498,0.499707 0.499703,0.499707 h 5.377047 c 0.447073,0 0.811447,0.363792 0.811447,0.811445 0,0.447075 -0.363785,0.811445 -0.811447,0.811445 h -0.881999 -5.009212 c -0.273575,0 -0.458649,-0.223248 -0.411806,-0.496814 l 0.249852,-1.069396 c 0.06419,-0.277615 -0.22498,-0.499707 -0.499704,-0.499707 H 4.4973717 c -0.2747234,0 -0.4997035,0.224984 -0.4997035,0.499707 v 1.281655 0.229033 2.622303 0.780214 0.730473 c 0,0.274724 0.2249801,0.499708 0.4997035,0.499708 h 1.7640116 4.7269647 c 0.274149,0 0.459222,0.223827 0.411805,0.497972 l -0.249852,1.068239 c 0,0 0,5.77e-4 0,5.77e-4 -0.06362,0.276459 0.222668,0.496237 0.495654,0.498551 0.0014,0 0.0029,5.78e-4 0.0043,5.78e-4 h 8.995295 c 0.274724,0 0.499718,-0.224984 0.499718,-0.499706 v -1.510689 c 5.74e-4,-0.275301 -0.224406,-0.499706 -0.499718,-0.499706"
       id="path1-7"
       style="display:inline;fill:#f4a7b0;fill-opacity:1;stroke:#f4a7b0;stroke-width:0.0578364;stroke-opacity:1" /><path
       style="display:inline;fill:#ffffff;fill-opacity:1;stroke:#202020;stroke-width:0.11;stroke-dasharray:none;stroke-opacity:0.95858"
       d="m 17.573547,4.9890957 c 0,0 -1.61483,-0.116942 -1.60195,-1.637027 0.0121,-1.425622 1.42655,-1.637025 1.57857,-1.637025 l 2.82971,-1e-6 c 0,0 1.57856,0.175396 1.59026,1.613639 0.0117,1.438243 -1.32132,1.660413 -1.56687,1.648719 -0.24556,-0.01169 -2.82972,0.01169 -2.82972,0.01169 z"
       id="path1-5"
       sodipodi:nodetypes="csscsscc" /><path
       style="display:inline;fill:#ffffff;fill-opacity:1;stroke:#202020;stroke-width:0.11;stroke-dasharray:none;stroke-opacity:0.95858"
       d="m 17.622304,127.51938 c 0,0 -1.61483,-0.11694 -1.60195,-1.63703 0.0121,-1.42562 1.42655,-1.63702 1.57857,-1.63702 h 2.82971 c 0,0 1.57856,0.17539 1.59026,1.61364 0.0117,1.43824 -1.32132,1.66041 -1.56687,1.64872 -0.24556,-0.0117 -2.82972,0.0117 -2.82972,0.0117 z"
       id="path1-4"
       sodipodi:nodetypes="csscsscc" /><path
       style="display:inline;fill:#ffffff;fill-opacity:1;stroke:#202020;stroke-width:0.11;stroke-dasharray:none;stroke-opacity:0.95858"
       d="m 5.0577094,127.44592 c 0,0 -1.61483,-0.11694 -1.60195,-1.63702 0.0121,-1.42563 1.42655,-1.63703 1.57857,-1.63703 h 2.82971 c 0,0 1.57856,0.1754 1.59026,1.61364 0.0117,1.43824 -1.32132,1.66041 -1.56687,1.64872 -0.24556,-0.0117 -2.82972,0.0117 -2.82972,0.0117 z"
       id="path1-8"
       sodipodi:nodetypes="csscsscc" /></g><metadata
     id="metadata4077"><rdf:RDF><cc:Work
         rdf:about=""><dc:title>SVG Image created as uSeqAnalogOuts_01a-B_Silkscreen.svg date 2024/09/07 11:07:57 </dc:title></cc:Work></rdf:RDF></metadata></svg>
